<svg width="120" height="40" viewBox="0 0 120 40" fill="none" xmlns="http://www.w3.org/2000/svg">
<path d="M110.135 7.92969e-06H9.53468C9.16798 7.92969e-06 8.80568 7.92975e-06 8.43995 0.00200793C8.1338 0.00400793 7.83009 0.00981793 7.521 0.0147079C6.84951 0.0226097 6.17961 0.0816842 5.5171 0.191418C4.85552 0.303541 4.21467 0.514924 3.61622 0.818418C3.0185 1.12448 2.47235 1.52218 1.99757 1.99708C1.5203 2.47064 1.12246 3.01802 0.81935 3.61817C0.5154 4.21712 0.304641 4.85895 0.19435 5.52149C0.0830109 6.18319 0.0230984 6.85253 0.01515 7.52349C0.00587 7.83009 0.00489 8.13771 0 8.44435V31.5586C0.00489 31.8691 0.00587 32.1699 0.01515 32.4805C0.0231008 33.1514 0.0830134 33.8207 0.19435 34.4824C0.304336 35.1453 0.515108 35.7875 0.81935 36.3867C1.12233 36.9849 1.52022 37.5301 1.99757 38.001C2.47054 38.478 3.01705 38.876 3.61622 39.1797C4.21467 39.484 4.85545 39.6967 5.5171 39.8105C6.17972 39.9194 6.84956 39.9785 7.521 39.9873C7.83009 39.9941 8.1338 39.998 8.43995 39.998C8.80567 40 9.168 40 9.53468 40H110.135C110.494 40 110.859 40 111.219 39.998C111.523 39.998 111.836 39.9941 112.141 39.9873C112.811 39.9789 113.479 39.9198 114.141 39.8105C114.804 39.6959 115.448 39.4833 116.049 39.1797C116.647 38.8758 117.193 38.4779 117.666 38.001C118.142 37.5282 118.541 36.9835 118.848 36.3867C119.15 35.7871 119.358 35.145 119.467 34.4824C119.578 33.8206 119.64 33.1515 119.652 32.4805C119.656 32.1699 119.656 31.8691 119.656 31.5586C119.664 31.1953 119.664 30.834 119.664 30.4648V9.53614C119.664 9.16993 119.664 8.80665 119.656 8.44435C119.656 8.13771 119.656 7.83009 119.652 7.52345C119.64 6.85243 119.578 6.18324 119.467 5.52145C119.358 4.85929 119.149 4.21751 118.848 3.61813C118.23 2.4152 117.252 1.43603 116.049 0.818328C115.448 0.515575 114.804 0.304248 114.141 0.191328C113.48 0.0811107 112.811 0.0220157 112.141 0.0145679C111.836 0.00968793 111.523 0.00382793 111.219 0.00187793C110.859 -0.00012207 110.494 -0.00012207 110.135 -0.00012207V7.92969e-06Z" fill="#A6A6A6"/>
<path d="M8.44484 39.125C8.14016 39.125 7.84284 39.1211 7.54055 39.1143C6.91433 39.1061 6.28957 39.0516 5.67141 38.9512C5.095 38.8519 4.53661 38.6673 4.01467 38.4033C3.49751 38.1415 3.02582 37.7983 2.61767 37.3867C2.20361 36.98 1.85888 36.5082 1.59716 35.9902C1.33255 35.4688 1.14942 34.9099 1.05416 34.333C0.951281 33.7131 0.895621 33.0863 0.887656 32.458C0.881316 32.2471 0.873016 31.5449 0.873016 31.5449V8.44434C0.873016 8.44434 0.881856 7.75293 0.887706 7.5498C0.895332 6.92248 0.950669 6.29665 1.05324 5.67773C1.14868 5.09925 1.33194 4.53875 1.5967 4.01563C1.85746 3.49794 2.20027 3.02586 2.61184 2.61768C3.02294 2.20562 3.49614 1.8606 4.01418 1.59521C4.53492 1.33209 5.09225 1.14873 5.6675 1.05127C6.28769 0.949836 6.91462 0.894996 7.54301 0.88721L8.44533 0.875H111.214L112.127 0.8877C112.75 0.895099 113.371 0.94945 113.985 1.05029C114.566 1.14898 115.13 1.33362 115.656 1.59814C116.694 2.13299 117.539 2.97916 118.071 4.01807C118.332 4.53758 118.512 5.09351 118.606 5.66699C118.71 6.29099 118.768 6.92174 118.78 7.5542C118.783 7.8374 118.783 8.1416 118.783 8.44434C118.791 8.81934 118.791 9.17627 118.791 9.53613V30.4648C118.791 30.8281 118.791 31.1826 118.783 31.54C118.783 31.8652 118.783 32.1631 118.779 32.4697C118.768 33.0909 118.71 33.7104 118.608 34.3232C118.515 34.9043 118.333 35.4675 118.068 35.9932C117.805 36.5056 117.462 36.9733 117.053 37.3789C116.644 37.7927 116.172 38.1379 115.653 38.4014C115.128 38.6674 114.566 38.8527 113.985 38.9512C113.367 39.0522 112.742 39.1067 112.116 39.1143C111.823 39.1211 111.517 39.125 111.219 39.125L110.135 39.127L8.44484 39.125Z" fill="black"/>
<path d="M24.7689 20.3007C24.7796 19.466 25.0013 18.6477 25.4134 17.9217C25.8254 17.1957 26.4143 16.5858 27.1254 16.1486C26.6737 15.5035 26.0777 14.9725 25.3849 14.598C24.6921 14.2234 23.9215 14.0156 23.1343 13.991C21.455 13.8147 19.8271 14.9958 18.9714 14.9958C18.0991 14.9958 16.7816 14.0085 15.3629 14.0376C14.4452 14.0673 13.5509 14.3341 12.767 14.8122C11.9831 15.2903 11.3364 15.9632 10.89 16.7655C8.95595 20.1139 10.3985 25.035 12.2511 27.7416C13.178 29.0669 14.2613 30.5474 15.6788 30.4949C17.0658 30.4374 17.5839 29.6104 19.2582 29.6104C20.9169 29.6104 21.403 30.4949 22.8492 30.4615C24.3376 30.4374 25.2753 29.1303 26.1697 27.7924C26.8357 26.848 27.3481 25.8043 27.6881 24.6999C26.8234 24.3341 26.0855 23.722 25.5664 22.9397C25.0472 22.1574 24.7699 21.2396 24.7689 20.3007V20.3007Z" fill="white"/>
<path d="M22.0372 12.2109C22.8488 11.2367 23.2486 9.98451 23.1518 8.72028C21.9119 8.8505 20.7667 9.44306 19.9442 10.3799C19.542 10.8376 19.234 11.37 19.0378 11.9468C18.8415 12.5235 18.7609 13.1333 18.8005 13.7413C19.4206 13.7477 20.0341 13.6132 20.5948 13.3482C21.1554 13.0831 21.6486 12.6942 22.0372 12.2109Z" fill="white"/>
<path d="M42.3022 27.1396H37.5688L36.4321 30.4961H34.4272L38.9106 18.0781H40.9936L45.477 30.4961H43.438L42.3022 27.1396ZM38.0591 25.5908H41.8111L39.9615 20.1435H39.9097L38.0591 25.5908Z" fill="white"/>
<path d="M55.1597 25.9697C55.1597 28.7832 53.6538 30.5908 51.3813 30.5908C50.8057 30.6209 50.2332 30.4883 49.7294 30.2082C49.2256 29.928 48.8109 29.5117 48.5327 29.0068H48.4897V33.4912H46.6313V21.4424H48.4302V22.9482H48.4644C48.7553 22.4458 49.177 22.0316 49.6847 21.7497C50.1923 21.4679 50.7668 21.3289 51.3472 21.3476C53.645 21.3477 55.1597 23.1641 55.1597 25.9697ZM53.2495 25.9697C53.2495 24.1367 52.3022 22.9316 50.8569 22.9316C49.437 22.9316 48.4819 24.1621 48.4819 25.9697C48.4819 27.7939 49.437 29.0156 50.8569 29.0156C52.3022 29.0156 53.2495 27.8193 53.2495 25.9697Z" fill="white"/>
<path d="M65.1245 25.9697C65.1245 28.7832 63.6187 30.5908 61.3462 30.5908C60.7705 30.6209 60.198 30.4883 59.6942 30.2082C59.1905 29.928 58.7757 29.5117 58.4976 29.0068H58.4546V33.4912H56.5962V21.4424H58.395V22.9482H58.4292C58.7201 22.4458 59.1418 22.0316 59.6495 21.7497C60.1571 21.4679 60.7317 21.3289 61.312 21.3476C63.6099 21.3476 65.1245 23.164 65.1245 25.9697ZM63.2144 25.9697C63.2144 24.1367 62.2671 22.9316 60.8218 22.9316C59.4018 22.9316 58.4468 24.1621 58.4468 25.9697C58.4468 27.7939 59.4018 29.0156 60.8218 29.0156C62.2671 29.0156 63.2144 27.8193 63.2144 25.9697H63.2144Z" fill="white"/>
<path d="M71.7104 27.0361C71.8481 28.2676 73.0444 29.0761 74.6792 29.0761C76.2456 29.0761 77.3726 28.2675 77.3726 27.1572C77.3726 26.1933 76.6929 25.6162 75.0835 25.2207L73.4741 24.833C71.1939 24.2822 70.1353 23.2158 70.1353 21.4853C70.1353 19.3427 72.0024 17.871 74.6538 17.871C77.2778 17.871 79.0767 19.3427 79.1372 21.4853H77.2612C77.1489 20.246 76.1245 19.498 74.6274 19.498C73.1303 19.498 72.1059 20.2548 72.1059 21.3564C72.1059 22.2343 72.7602 22.7509 74.3608 23.1464L75.729 23.4823C78.2768 24.0849 79.3354 25.1083 79.3354 26.9247C79.3354 29.248 77.4848 30.703 74.5415 30.703C71.7876 30.703 69.9282 29.2821 69.8081 27.036L71.7104 27.0361Z" fill="white"/>
<path d="M83.3462 19.2998V21.4424H85.0679V22.9141H83.3462V27.9053C83.3462 28.6807 83.6909 29.042 84.4477 29.042C84.6521 29.0384 84.8562 29.0241 85.0591 28.999V30.4619C84.7188 30.5255 84.3729 30.5543 84.0268 30.5478C82.1938 30.5478 81.479 29.8593 81.479 28.1035V22.9141H80.1626V21.4424H81.479V19.2998H83.3462Z" fill="white"/>
<path d="M86.065 25.9697C86.065 23.1211 87.7427 21.3311 90.3589 21.3311C92.9839 21.3311 94.6538 23.1211 94.6538 25.9697C94.6538 28.8262 92.9927 30.6084 90.3589 30.6084C87.7261 30.6084 86.065 28.8262 86.065 25.9697ZM92.7603 25.9697C92.7603 24.0156 91.8648 22.8623 90.3589 22.8623C88.853 22.8623 87.9585 24.0244 87.9585 25.9697C87.9585 27.9316 88.853 29.0762 90.3589 29.0762C91.8648 29.0762 92.7602 27.9316 92.7602 25.9697H92.7603Z" fill="white"/>
<path d="M96.186 21.4424H97.9585V22.9834H98.0015C98.1214 22.5021 98.4034 22.0768 98.8 21.7789C99.1966 21.481 99.6836 21.3287 100.179 21.3476C100.393 21.3469 100.607 21.3702 100.816 21.417V23.1553C100.546 23.0726 100.264 23.0347 99.981 23.043C99.711 23.032 99.4418 23.0796 99.192 23.1825C98.9421 23.2854 98.7175 23.4411 98.5335 23.639C98.3496 23.8369 98.2106 24.0723 98.1262 24.3289C98.0417 24.5856 98.0139 24.8575 98.0444 25.126V30.4961H96.186L96.186 21.4424Z" fill="white"/>
<path d="M109.384 27.8369C109.134 29.4805 107.534 30.6084 105.486 30.6084C102.852 30.6084 101.217 28.8437 101.217 26.0127C101.217 23.1729 102.861 21.3311 105.408 21.3311C107.913 21.3311 109.488 23.0518 109.488 25.7969V26.4336H103.093V26.5459C103.064 26.8791 103.105 27.2148 103.216 27.5306C103.326 27.8464 103.502 28.1352 103.732 28.3778C103.963 28.6203 104.242 28.8111 104.552 28.9374C104.861 29.0637 105.195 29.1226 105.529 29.1103C105.968 29.1515 106.409 29.0498 106.785 28.8203C107.162 28.5909 107.455 28.246 107.62 27.8369L109.384 27.8369ZM103.102 25.1348H107.628C107.645 24.8352 107.6 24.5354 107.495 24.2541C107.39 23.9729 107.229 23.7164 107.02 23.5006C106.812 23.2849 106.561 23.1145 106.283 23.0003C106.006 22.8861 105.708 22.8305 105.408 22.8369C105.105 22.8351 104.805 22.8933 104.525 23.008C104.245 23.1227 103.99 23.2918 103.776 23.5054C103.562 23.7191 103.392 23.973 103.276 24.2527C103.16 24.5323 103.101 24.8321 103.102 25.1348V25.1348Z" fill="white"/>
<path d="M37.1846 14.6978V9.57424H35.3076V8.73102H39.9844V9.57428H38.1114V14.6978L37.1846 14.6978Z" fill="white"/>
<path d="M40.2705 13.4243C40.2705 12.6138 40.8741 12.1465 41.9453 12.0801L43.1651 12.0098V11.6211C43.1651 11.1455 42.8506 10.877 42.2432 10.877C41.7471 10.877 41.4034 11.0591 41.3047 11.3774H40.4444C40.5352 10.604 41.2627 10.1079 42.2842 10.1079C43.4131 10.1079 44.0498 10.6699 44.0498 11.6211V14.6978H43.1944V14.0649H43.124C42.9813 14.2919 42.7809 14.477 42.5433 14.6012C42.3056 14.7254 42.0393 14.7843 41.7715 14.7719C41.5824 14.7916 41.3914 14.7714 41.2106 14.7127C41.0299 14.654 40.8634 14.5581 40.722 14.4311C40.5806 14.3042 40.4674 14.149 40.3896 13.9756C40.3118 13.8021 40.2713 13.6144 40.2705 13.4243ZM43.1651 13.0395V12.6631L42.0655 12.7334C41.4453 12.7749 41.1641 12.9858 41.1641 13.3828C41.1641 13.7881 41.5156 14.0239 41.9991 14.0239C42.1407 14.0383 42.2838 14.024 42.4198 13.9819C42.5558 13.9398 42.682 13.8708 42.7908 13.7789C42.8995 13.6871 42.9887 13.5743 43.053 13.4473C43.1174 13.3202 43.1554 13.1816 43.1651 13.0395V13.0395ZM41.6436 8.01513C41.8324 7.95046 42.0309 7.91843 42.2305 7.9204C42.8223 7.9204 43.2061 8.2344 43.2061 8.73095C43.1891 8.95253 43.1042 9.16348 42.963 9.33509C42.8218 9.50669 42.6312 9.63061 42.417 9.68995L42.0772 9.25195C42.3467 9.16504 42.5362 8.9873 42.5362 8.80908C42.5362 8.62744 42.3584 8.49508 42.1065 8.49508C41.9478 8.49072 41.7899 8.52036 41.6436 8.58199L41.6436 8.01513Z" fill="white"/>
<path d="M45.3252 8.8633C45.3184 8.7482 45.3462 8.63369 45.4052 8.53461C45.4642 8.43553 45.5515 8.35644 45.656 8.30759C45.7604 8.25873 45.8771 8.24237 45.991 8.26061C46.1048 8.27885 46.2106 8.33085 46.2945 8.40989C46.3785 8.48892 46.4368 8.59135 46.4619 8.70389C46.4869 8.81644 46.4776 8.93392 46.4352 9.04112C46.3927 9.14832 46.319 9.24029 46.2237 9.30514C46.1283 9.36998 46.0157 9.4047 45.9004 9.4048C45.8267 9.40856 45.753 9.39737 45.6837 9.37192C45.6145 9.34647 45.5511 9.30727 45.4973 9.25669C45.4436 9.20611 45.4007 9.14518 45.3711 9.07758C45.3415 9.00998 45.3259 8.93709 45.3252 8.8633V8.8633ZM45.457 10.1948H46.3428V14.6978H45.457V10.1948Z" fill="white"/>
<path d="M52.4102 14.6978H51.4551L49.8301 10.1948H50.7803L51.9014 13.7466H51.9717L53.0879 10.1948H54.0313L52.4102 14.6978Z" fill="white"/>
<path d="M58.6934 13.4819C58.5726 13.8935 58.311 14.2495 57.9543 14.4876C57.5977 14.7258 57.1686 14.8309 56.7422 14.7847C56.4455 14.7925 56.1507 14.7357 55.8782 14.6181C55.6057 14.5006 55.3621 14.3252 55.1641 14.1041C54.9662 13.8829 54.8188 13.6214 54.7321 13.3375C54.6454 13.0537 54.6215 12.7544 54.6621 12.4604C54.6226 12.1656 54.6469 11.8656 54.7334 11.581C54.8199 11.2963 54.9665 11.0335 55.1634 10.8104C55.3603 10.5874 55.6028 10.4092 55.8745 10.288C56.1462 10.1668 56.4408 10.1054 56.7383 10.1079C57.9912 10.1079 58.7471 10.9639 58.7471 12.3779V12.688H55.5674V12.7378C55.5535 12.9031 55.5742 13.0694 55.6284 13.2261C55.6825 13.3829 55.7688 13.5266 55.8817 13.648C55.9946 13.7695 56.1316 13.866 56.284 13.9314C56.4364 13.9968 56.6008 14.0296 56.7666 14.0278C56.9792 14.0533 57.1945 14.015 57.3853 13.9178C57.5761 13.8206 57.7336 13.6689 57.8379 13.4819L58.6934 13.4819ZM58.3799 9.57862H57.4531L56.7705 8.73487H56.7051L56.0225 9.57862H55.0967L56.2539 8.21H57.2217L58.3799 9.57862ZM55.5674 12.0308H57.8418C57.853 11.8796 57.8325 11.7278 57.7815 11.5851C57.7306 11.4424 57.6503 11.3119 57.5459 11.2021C57.4415 11.0922 57.3153 11.0054 57.1754 10.9472C57.0355 10.8891 56.8849 10.8608 56.7334 10.8643C56.5797 10.8623 56.4272 10.8912 56.2848 10.9491C56.1424 11.0071 56.0131 11.0929 55.9044 11.2016C55.7958 11.3104 55.71 11.4397 55.6521 11.5821C55.5942 11.7245 55.5654 11.8771 55.5674 12.0308V12.0308ZM57.8379 8.09814L56.916 6.7998H57.8418L58.6318 8.09814H57.8379Z" fill="white"/>
<path d="M63.586 9.07373V10.2153H64.5616V10.9639H63.586V13.2793C63.586 13.751 63.7803 13.9575 64.2227 13.9575C64.336 13.9572 64.4491 13.9503 64.5616 13.937V14.6772C64.402 14.7058 64.2403 14.721 64.0782 14.7226C63.0899 14.7226 62.6963 14.375 62.6963 13.5068V10.9638H61.9815V10.2153H62.6963V9.07373H63.586Z" fill="white"/>
<path d="M65.7349 10.1948H66.5903V10.8852H66.6567C66.7525 10.6456 66.9218 10.4424 67.1402 10.3049C67.3587 10.1675 67.615 10.1028 67.8726 10.1201C68.0057 10.1183 68.1386 10.1308 68.269 10.1572V11.0342C68.106 10.9994 67.9397 10.9814 67.773 10.9805C67.6264 10.9673 67.4787 10.985 67.3393 11.0323C67.2 11.0796 67.0721 11.1556 66.9638 11.2553C66.8556 11.355 66.7694 11.4762 66.7108 11.6112C66.6522 11.7462 66.6225 11.8919 66.6235 12.0391V14.6978H65.7349L65.7349 10.1948Z" fill="white"/>
<path d="M72.9429 13.4819C72.8221 13.8935 72.5605 14.2495 72.2039 14.4876C71.8472 14.7258 71.4181 14.8309 70.9917 14.7847C70.6951 14.7925 70.4002 14.7357 70.1277 14.6181C69.8552 14.5006 69.6116 14.3252 69.4137 14.1041C69.2157 13.8829 69.0683 13.6214 68.9816 13.3375C68.8949 13.0537 68.8711 12.7544 68.9116 12.4604C68.8721 12.1656 68.8964 11.8656 68.9829 11.5809C69.0694 11.2963 69.2161 11.0335 69.4129 10.8104C69.6098 10.5874 69.8523 10.4092 70.124 10.288C70.3957 10.1668 70.6903 10.1054 70.9878 10.1079C72.2407 10.1079 72.9966 10.9639 72.9966 12.3779V12.688H69.8169V12.7378C69.803 12.903 69.8238 13.0694 69.8779 13.2261C69.932 13.3829 70.0183 13.5266 70.1312 13.648C70.2441 13.7695 70.3811 13.866 70.5335 13.9314C70.6859 13.9968 70.8503 14.0296 71.0161 14.0278C71.2287 14.0533 71.4441 14.015 71.6348 13.9178C71.8256 13.8206 71.9831 13.6689 72.0874 13.4819L72.9429 13.4819ZM72.6245 9.57861H71.7114L71.02 8.67285H70.9546L70.2641 9.57861H69.3461L70.5034 8.14795H71.4711L72.6245 9.57861ZM69.8169 12.0308H72.0913C72.1025 11.8796 72.082 11.7278 72.031 11.5851C71.9801 11.4424 71.8998 11.3119 71.7954 11.2021C71.691 11.0922 71.5648 11.0054 71.4249 10.9472C71.285 10.889 71.1344 10.8608 70.9829 10.8643C70.8292 10.8623 70.6767 10.8912 70.5343 10.9491C70.3919 11.0071 70.2626 11.0929 70.1539 11.2016C70.0453 11.3104 69.9595 11.4397 69.9016 11.5821C69.8437 11.7245 69.8149 11.8771 69.8169 12.0308V12.0308Z" fill="white"/>
<path d="M74.19 10.1948H75.0455V10.9102H75.1119C75.2245 10.6532 75.4145 10.4379 75.6554 10.2941C75.8963 10.1503 76.176 10.0852 76.4556 10.1079C76.6747 10.0914 76.8947 10.1245 77.0993 10.2046C77.3039 10.2847 77.4879 10.4098 77.6376 10.5706C77.7872 10.7315 77.8988 10.9239 77.964 11.1337C78.0292 11.3436 78.0464 11.5654 78.0142 11.7827V14.6977H77.1255V12.0059C77.1255 11.2822 76.8111 10.9224 76.1539 10.9224C76.0051 10.9154 75.8566 10.9408 75.7186 10.9966C75.5805 11.0524 75.4562 11.1375 75.354 11.2458C75.2519 11.3542 75.1744 11.4834 75.1269 11.6245C75.0794 11.7657 75.0629 11.9154 75.0787 12.0635V14.6978H74.19V10.1948Z" fill="white"/>
</svg>
